<?xml version="1.0" encoding="UTF-8" standalone="no"?>
<!-- Created with Inkscape (http://www.inkscape.org/) -->

<svg
   width="263.37323mm"
   height="72.378716mm"
   viewBox="0 0 263.37323 72.378717"
   version="1.1"
   id="svg1"
   xml:space="preserve"
   inkscape:version="1.3.2 (091e20e, 2023-11-25, custom)"
   sodipodi:docname="Logo.svg"
   inkscape:export-filename="..\..\Aula Java\Projetos_finance\Finance_proj\html_page\imgs\Logo.jpg"
   inkscape:export-xdpi="96"
   inkscape:export-ydpi="96"
   xmlns:inkscape="http://www.inkscape.org/namespaces/inkscape"
   xmlns:sodipodi="http://sodipodi.sourceforge.net/DTD/sodipodi-0.dtd"
   xmlns:xlink="http://www.w3.org/1999/xlink"
   xmlns="http://www.w3.org/2000/svg"
   xmlns:svg="http://www.w3.org/2000/svg"><sodipodi:namedview
     id="namedview1"
     pagecolor="#ffffff"
     bordercolor="#000000"
     borderopacity="0.25"
     inkscape:showpageshadow="2"
     inkscape:pageopacity="0.0"
     inkscape:pagecheckerboard="0"
     inkscape:deskcolor="#d1d1d1"
     inkscape:document-units="mm"
     inkscape:zoom="0.5"
     inkscape:cx="5198"
     inkscape:cy="279"
     inkscape:window-width="2560"
     inkscape:window-height="1377"
     inkscape:window-x="-8"
     inkscape:window-y="-8"
     inkscape:window-maximized="1"
     inkscape:current-layer="layer1" /><defs
     id="defs1"><linearGradient
       id="linearGradient12"
       inkscape:collect="always"><stop
         style="stop-color:#0063d6;stop-opacity:1;"
         offset="0"
         id="stop13" /><stop
         style="stop-color:#53a3ff;stop-opacity:1;"
         offset="1"
         id="stop14" /></linearGradient><linearGradient
       inkscape:collect="always"
       xlink:href="#linearGradient12"
       id="linearGradient49"
       gradientUnits="userSpaceOnUse"
       gradientTransform="translate(374.16192,10.521257)"
       x1="2315.0457"
       y1="-762.87872"
       x2="2265.9324"
       y2="-815.8429" /></defs><g
     inkscape:label="Camada 1"
     inkscape:groupmode="layer"
     id="layer1"
     transform="translate(-3572.7157,460.61756)"><g
       id="g21-3-5-5"
       transform="rotate(35.451398,2583.4322,877.51884)"><circle
         style="fill:url(#linearGradient49);fill-opacity:1;stroke-width:0.2;stroke-linejoin:round;stroke-miterlimit:80;paint-order:markers fill stroke"
         id="path6-61-5-3-7-1-7"
         cx="2663.6453"
         cy="-777.84412"
         r="36.189362" /><path
         id="path5-7-7-4-5-8-4"
         style="mix-blend-mode:multiply;fill:#6a6a6a;fill-opacity:0.5;stroke-width:0.2;stroke-linejoin:round;stroke-miterlimit:80;paint-order:markers fill stroke"
         inkscape:transform-center-x="-0.086376768"
         inkscape:transform-center-y="-11.066013"
         d="m 2663.3853,-766.65993 c -8.782,0.029 -17.498,5.92059 -25.4284,14.17691 a 36.189362,36.189362 0 0 0 25.6884,10.82828 36.189362,36.189362 0 0 0 25.5622,-10.7027 c -8.0667,-8.35956 -16.9307,-14.33183 -25.8222,-14.30249 z" /><path
         id="path5-3-4-1-8-1-1"
         style="mix-blend-mode:multiply;fill:#6a6a6a;fill-opacity:0.5;stroke-width:0.2;stroke-linejoin:round;stroke-miterlimit:80;paint-order:markers fill stroke"
         inkscape:transform-center-x="-0.086404433"
         inkscape:transform-center-y="-14.828444"
         d="m 2663.3859,-789.43993 c -11.142,0.0493 -22.1879,12.70222 -31.642,28.49283 a 36.189362,36.189362 0 0 0 31.9014,19.29236 36.189362,36.189362 0 0 0 31.8089,-19.12183 c -9.5991,-15.9177 -20.8152,-28.71311 -32.0683,-28.66336 z" /><path
         id="path5-3-7-1-2-5-9"
         style="mix-blend-mode:multiply;fill:#6a6a6a;fill-opacity:0.5;stroke-width:0.2;stroke-linejoin:round;stroke-miterlimit:80;paint-order:markers fill stroke"
         inkscape:transform-center-x="-0.086379886"
         inkscape:transform-center-y="-18.308656"
         d="m 2663.3859,-810.51152 c -12.3708,0.0676 -24.6157,19.32898 -34.7023,41.76696 a 36.189362,36.189362 0 0 0 34.9617,27.08982 36.189362,36.189362 0 0 0 34.91,-26.85055 c -10.2381,-22.5976 -22.6784,-42.07441 -35.1694,-42.00623 z" /></g><path
       id="path44-0-0-1"
       style="font-weight:600;font-size:49.4735px;line-height:1.2;font-family:Montserrat;-inkscape-font-specification:'Montserrat Semi-Bold';letter-spacing:2.31907px;word-spacing:0px;fill:#ffffff;fill-opacity:1;stroke-width:0.2;stroke-linejoin:round;stroke-miterlimit:80;paint-order:markers fill stroke"
       d="m 3740.1729,-437.32671 c -2.6716,0 -5.1456,0.44531 -7.4213,1.33583 -2.2758,0.89052 -4.2545,2.14385 -5.9366,3.75998 -1.6821,1.58315 -2.9847,3.46313 -3.9083,5.63997 -0.9235,2.14385 -1.3854,4.50188 -1.3854,7.0745 h 17.0945 v 17.75137 c 0.5276,0.0362 1.0617,0.0594 1.6067,0.0594 2.6714,0 5.1283,-0.44532 7.3711,-1.33584 2.2758,-0.89052 4.255,-2.12722 5.9371,-3.71037 1.6821,-1.58315 2.9848,-3.46313 3.9083,-5.63996 0.9235,-2.17683 1.3854,-4.55201 1.3854,-7.12463 0,-2.57262 -0.4619,-4.93065 -1.3854,-7.0745 -0.9235,-2.17684 -2.2262,-4.05682 -3.9083,-5.63997 -1.6821,-1.61613 -3.6613,-2.86946 -5.9371,-3.75998 -2.2428,-0.89052 -4.7162,-1.33583 -7.4207,-1.33583 z m -76.6718,35.12631 v -44.9502 h 6.4315 v 44.9502 z m 18.1011,-2e-5 v -34.63145 h 5.2936 l 21.7189,26.66621 h -2.6221 v -26.66621 h 6.3821 v 34.63145 h -5.2937 l -21.7188,-26.66622 h 2.6221 v 26.66622 z m 95.5205,0 -15.1389,-34.63145 h 6.9758 l 13.5062,31.31672 h -4.0073 l 13.6547,-31.31672 h 6.4315 l -15.0894,34.63145 z m 21.4158,0 15.5842,-34.63145 h 6.3326 l 15.6336,34.63145 h -6.7284 l -13.4073,-31.21778 h 2.5726 l -13.3578,31.21778 z m 7.1737,-8.01471 1.7315,-5.0463 h 18.701 l 1.7316,5.0463 z" /></g></svg>
